<svg
    version="1.1"
    width="2110"
    height="910"
    viewBox="-0.05 -0.05 21.1 9.1"
    preserveAspectRatio="xMinYMin meet"
    xmlns="http://www.w3.org/2000/svg">

    <defs>
        <pattern
            id="tetromino-grid"
            width="1"
            height="1"
            patternUnits="userSpaceOnUse">

            <rect
                width="1"
                height="1"
                fill="none"
                stroke="#ccc"
                stroke-width=".1" />

        </pattern>
    </defs>

    <rect
        x="-0.05"
        y="-0.05"
        width="100%"
        height="100%"
        fill="url(#tetromino-grid)" />

    <polygon
        points="1,1 2,1 2,3 4,3 4,1 3,1 3,2 1,2"
        fill="rgb(240, 228, 66)"
        stroke="black"
        stroke-width=".1" />

    <polygon
        points="5,1 6,1 6,2 8,2 8,1 7,1 7,3 5,3"
        fill="rgb(204, 121, 167)"
        stroke="black"
        stroke-width=".1" />

    <polygon
        points="15,1 16,1 16,3 15,3 15,4 17,4 17,2 15,2"
        fill="rgb(86, 180, 233)"
        stroke="black"
        stroke-width=".1" />

    <polygon
        points="19,1 20,1 20,2 18,2 18,4 20,4 20,3 19,3"
        fill="rgb(213, 94, 0)"
        stroke="black"
        stroke-width=".1" />

    <polygon
        points="1,5 3,5 3,6 4,6 4,4 2,4 2,6 1,6"
        fill="rgb(0, 158, 115)"
        stroke="black"
        stroke-width=".1" />

    <polygon
        points="5,4 7,4 7,6 8,6 8,5 6,5 6,6 5,6"
        fill="rgb(0, 114, 178)"
        stroke="black"
        stroke-width=".1" />

    <polygon
        points="15,5 17,5 17,7 15,7 15,8 16,8 16,6 15,6"
        fill="rgb(240, 228, 66)"
        stroke="black"
        stroke-width=".1" />

    <polygon
        points="18,5 20,5 20,6 19,6 19,8 20,8 20,7 18,7"
        fill="rgb(204, 121, 167)"
        stroke="black"
        stroke-width=".1" />

</svg>
