<svg
    version="1.1"
    width="2110"
    height="410"
    viewBox="-0.05 -0.05 21.1 4.1"
    preserveAspectRatio="xMinYMin meet"
    xmlns="http://www.w3.org/2000/svg">

    <defs>
        <pattern
            id="tetromino-grid"
            width="1"
            height="1"
            patternUnits="userSpaceOnUse">

            <rect
                width="1"
                height="1"
                fill="none"
                stroke="#ccc"
                stroke-width=".1" />

        </pattern>
    </defs>

    <rect
        x="-0.05"
        y="-0.05"
        width="100%"
        height="100%"
        fill="url(#tetromino-grid)" />

    <polygon
        points="1,1 5,1 5,2 1,2"
        fill="none"
        stroke="black"
        stroke-width=".1" />

    <polygon
        points="6,1 8,1 8,3 6,3"
        fill="none"
        stroke="black"
        stroke-width=".1" />

    <polygon
        points="9,1 12,1 12,2 11,2 11,3 10,3 10,2 9,2"
        fill="none"
        stroke="black"
        stroke-width=".1" />

    <polygon
        points="13,1 14,1 14,2 16,2 16,3 13,3"
        fill="none"
        stroke="black"
        stroke-width=".1" />

    <polygon
        points="17,1 19,1 19,2 20,2 20,3 18,3 18,2 17,2"
        fill="none"
        stroke="black"
        stroke-width=".1" />

</svg>
